<svg id="visual" viewBox="0 0 1352 658.8" width="1352" height="658.8" xmlns="http://www.w3.org/2000/svg" xmlns:xlink="http://www.w3.org/1999/xlink" version="1.1"><rect x="0" y="0" width="1352" height="658.8" fill="#262634"></rect><path d="M0 427L32.2 444C64.3 461 128.7 495 193 517.3C257.3 539.7 321.7 550.3 386 551.3C450.3 552.3 514.7 543.7 579.2 527.8C643.7 512 708.3 489 772.8 477.3C837.3 465.7 901.7 465.3 966 482.5C1030.3 499.7 1094.7 534.3 1159 524.7C1223.3 515 1287.7 461 1319.8 434L1352 407L1352 660L1319.8 660C1287.7 660 1223.3 660 1159 660C1094.7 660 1030.3 660 966 660C901.7 660 837.3 660 772.8 660C708.3 660 643.7 660 579.2 660C514.7 660 450.3 660 386 660C321.7 660 257.3 660 193 660C128.7 660 64.3 660 32.2 660L0 660Z" fill="#39374a" stroke-linecap="round" stroke-linejoin="miter"></path></svg>